<svg width="137" height="33" viewBox="0 0 137 33" fill="none" xmlns="http://www.w3.org/2000/svg"><path fill-rule="evenodd" clip-rule="evenodd" d="M19.525 16.066c0 5.016-4.135 9.082-9.235 9.082s-9.235-4.066-9.235-9.082c0-5.015 4.134-9.081 9.235-9.081 5.1 0 9.235 4.065 9.235 9.081zm-3.409 0c0 3.165-2.608 5.73-5.826 5.73-3.218 0-5.827-2.565-5.827-5.73 0-3.164 2.609-5.73 5.827-5.73s5.826 2.566 5.826 5.73z" fill="#120136"/><path d="M31.918 10.332a8.824 8.824 0 0 0-.77-.772 8.995 8.995 0 0 0-6.28-2.245 8.974 8.974 0 0 0-6.1 2.682 8.68 8.68 0 0 0-2.486 6.1 8.682 8.682 0 0 0 2.53 6.083 8.976 8.976 0 0 0 6.119 2.64 8.993 8.993 0 0 0 6.264-2.29c.256-.23.497-.474.723-.73l-2.585-2.184a5.551 5.551 0 0 1-4.304 1.854 5.541 5.541 0 0 1-3.778-1.63 5.36 5.36 0 0 1-1.561-3.755 5.359 5.359 0 0 1 1.534-3.765 5.54 5.54 0 0 1 3.766-1.656 5.553 5.553 0 0 1 4.343 1.852l2.585-2.184zM34.037 17.904V3.525h3.408v4.108h5.112v3.136h-5.112v7.351c0 1.881 1.55 3.406 3.463 3.406h1.65v3.135h-1.65c-3.794 0-6.87-3.025-6.87-6.757z" fill="#120136"/><path fill-rule="evenodd" clip-rule="evenodd" d="M58.719 22.483c-1.385 1.45-3.313 2.337-5.637 2.34-4.913-.006-8.894-3.925-8.894-8.757s3.981-8.75 8.894-8.757c2.324.003 4.252.89 5.637 2.34V7.633h3.298V24.5h-3.298v-2.015zm-5.625-1.011c3.036 0 5.497-2.42 5.497-5.406 0-2.985-2.461-5.406-5.497-5.406s-5.497 2.42-5.497 5.406c0 2.986 2.46 5.406 5.497 5.406z" fill="#120136"/><path d="M69.644 16.271C69.644 2.871 72.516 0 85.915 0c13.4 0 16.271 2.872 16.271 16.271 0 13.4-2.872 16.271-16.27 16.271-13.4 0-16.272-2.872-16.272-16.27z" fill="url(#a)"/><path d="M80.907 3.56c4.346.053 10.372 7.12 13.065 11.999 1.973-1.973 3.067-3.813 3.2-5.146 1.173.213 2.24.933 2.266 2.213.054 1.653-1.44 3.973-3.946 6.266 1.12 2.986 1.253 5.466.187 6.612-.48.48-1.12.64-1.814.64.08-1.573-.293-3.333-.986-5.146-4.8 3.466-10.692 5.706-14.212 5.546-1.173-.053-2.08-.373-2.613-1.013-.747-.853-.427-1.813-.373-1.947 4.932.747 11.705-2.72 15.705-5.759C88.026 11.72 82.08 6.093 78.48 6.093c.107-1.52.907-2.56 2.427-2.533z" fill="url(#b)"/><path d="M91.599 29.237c-4.507 0-10.293-6.559-12.933-10.825-1.84 1.76-4.72 5.306-3.146 7.279-.24-.267-2.453-3.066-2.506-3.173-1.04-1.787.533-4.746 3.706-7.706-1.12-2.506-1.573-4.293-1.573-5.653 0-2.72 1.713-3.948 3.386-5.306-1.44 2.08.107 6.24 1.173 8.533 4.187-3.013 10.16-5.573 14.106-5.573 1.493 0 2.64.293 3.546 1.44l2 2.506c-3.387-2.906-13.252 1.867-17.678 5.12 2.693 4.24 10.265 12.985 14.265 10.052-.96 1.093-2.907 3.306-4.346 3.306z" fill="url(#c)"/><path d="M75.6 25.771l-.08-.08.08.08z" fill="#fff"/><path d="M123.51 7.765h-4.143l12.536 17.15h4.144L123.51 7.765z" fill="#120136"/><path d="M131.903 7.765h4.144l-12.537 17.15h-4.143l12.536-17.15zM109.813 7.802v17.113h3.423V11.046h4.956V7.802h-4.956c0-3.067 1.606-4.177 3.53-4.177h1.426V.415h-1.426c-4.207 0-6.953 2.752-6.953 7.387z" fill="#120136"/><defs><linearGradient id="a" x1="102.186" x2="69.644" y2="32.542" gradientUnits="userSpaceOnUse"><stop/><stop offset="1" stop-color="#1A0052"/></linearGradient><radialGradient id="b" cx="0" cy="0" r="1" gradientUnits="userSpaceOnUse" gradientTransform="matrix(-9.11446 11.15356 -11.14605 -9.10832 91.826 16.442)"><stop stop-color="#0E012B"/><stop offset=".246" stop-color="#0E012B"/><stop offset=".555" stop-color="#0E155A"/><stop offset="1" stop-color="#172A80"/></radialGradient><radialGradient id="c" cx="0" cy="0" r="1" gradientUnits="userSpaceOnUse" gradientTransform="rotate(85.26 35.46 51.191) scale(19.1556 22.5663)"><stop stop-color="#9DE2FF"/><stop offset=".427" stop-color="#5E97F9"/><stop offset=".847" stop-color="#0C34F0"/><stop offset=".995" stop-color="#101B4B"/></radialGradient></defs></svg>