<svg width="116" height="17" viewBox="0 0 116 17" fill="none" xmlns="http://www.w3.org/2000/svg"><path fill-rule="evenodd" clip-rule="evenodd" d="M115.882 0a23.997 23.997 0 0 0-16.97 7.03L96.97 8.97A24 24 0 0 1 80 16H35.882a24 24 0 0 1-16.97-7.03L16.97 7.03A23.999 23.999 0 0 0 0 0h115.882z" fill="#E2E6F9"/><path d="M115.882 0a23.997 23.997 0 0 0-16.97 7.03L96.97 8.97A24 24 0 0 1 80 16H35.882a24 24 0 0 1-16.97-7.03L16.97 7.03A23.999 23.999 0 0 0 0 0v1a23 23 0 0 1 16.263 6.737l1.942 1.94A25 25 0 0 0 35.882 17H80a25 25 0 0 0 17.678-7.322l1.94-1.941A23 23 0 0 1 115.883 1V0z" fill="#E2E6F9"/><path fill-rule="evenodd" clip-rule="evenodd" d="M115.882 0a23.997 23.997 0 0 0-16.97 7.03L96.97 8.97A24 24 0 0 1 80 16H35.882a24 24 0 0 1-16.97-7.03L16.97 7.03A23.999 23.999 0 0 0 0 0h115.882z" fill="#fff"/></svg>